<svg fill="#565656" enable-background="new 0 0 1000 1000" viewBox="0 0 1000 1000" xmlns="http://www.w3.org/2000/svg"><g transform="matrix(.1 0 0 -.1 0 511)"><path d="m1923 4984.1c-946-210-1526-1160-1282-2102 98-378 366-746 706-968 144-94 414-218 474-218 28 0 32-134 32-1320v-1320.1h1280 1280v-1700-1700h1490 1490v420 420h-1070-1070v1700 1700h-1280-1280v890c0 830 2 892 36 904 368 128 526 224 764 464 346 350 502 768 474 1280-36 688-502 1284-1174 1506-166 54-222 62-460 68-194 6.1-310-1.9-410-23.9zm736-894c182-90 312-224 402-414 118-252 90-600-68-828-82-120-228-248-344-302-522-242-1118 76-1218 648-42 238 38 512 206 694 198 214 382 292 678 282 176-4 206-12 344-80z"/><path d="m7833.1 3116.1v-1060.1h260 260v260 260h136c420 0 714 162 860 476 48 102 54 138 54 324 0 184-8 224-52 320-114 242-346 418-608 460-66 10-298 20-514 20h-396zm900 508c100-40 160-134 160-248 0-188-128-280-390-280h-150v280 280h150c90 0 180-12 230-32z"/><path d="m7973.1 720c-142-70-140-60-140-1128v-956h260 260l4 494 6 492 286-430c158-238 312-456 344-486 112-108 298-80 380 56 38 62 40 108 40 1030v964h-260-260v-494-496l-312 466c-256 386-322 472-378 496-90 36-146 36-230-8z"/><path d="m7833.1-3726v-1064l356 12c406 12 536 42 736 170 572 370 658 1156 178 1634-242 242-444 310-934 310h-336zm704 518c114-34 262-174 316-300 36-86 44-130 36-248-12-174-76-300-200-390-76-54-244-118-310-118-20 0-26 106-26 540v540h52c30 0 90-10 132-24z"/></g></svg>
